<?xml version="1.0" encoding="iso-8859-1"?>
<!-- Uploaded to: SVG Repo, www.svgrepo.com, Generator: SVG Repo Mixer Tools -->
<svg height="800px" width="800px" version="1.1" id="Layer_1" xmlns="http://www.w3.org/2000/svg" xmlns:xlink="http://www.w3.org/1999/xlink" 
	 viewBox="0 0 512.035 512.035" xml:space="preserve">
<g transform="translate(1 1)">
	<path style="fill:#FFE100;" d="M323.267,7.568h-230.4v384h111.787c-5.973-10.24-9.387-21.333-9.387-34.133
		c0-37.547,30.72-68.267,68.267-68.267s68.267,30.72,68.267,68.267c0,12.8-3.413,23.893-9.387,34.133h94.72V101.435L323.267,7.568z"
		/>
	<polygon style="fill:#FFFFFF;" points="92.867,391.568 118.467,391.568 118.467,7.568 92.867,7.568 	"/>
	<polygon style="fill:#FFA800;" points="323.267,7.568 314.733,7.568 391.533,101.435 391.533,391.568 417.133,391.568 
		417.133,101.435 	"/>
	<polygon style="fill:#FDCC00;" points="323.267,7.568 323.267,101.435 417.133,101.435 	"/>
	<g>
		<path style="fill:#63D3FD;" d="M331.8,357.435c0,37.547-30.72,68.267-68.267,68.267s-68.267-30.72-68.267-68.267
			s30.72-68.267,68.267-68.267S331.8,319.888,331.8,357.435"/>
		<polygon style="fill:#63D3FD;" points="144.067,109.968 237.933,109.968 237.933,75.835 144.067,75.835 		"/>
		<polygon style="fill:#63D3FD;" points="144.067,178.235 297.667,178.235 297.667,144.101 144.067,144.101 		"/>
		<polygon style="fill:#63D3FD;" points="144.067,246.501 348.867,246.501 348.867,212.368 144.067,212.368 		"/>
	</g>
	<path d="M417.133,109.968h-93.867c-5.12,0-8.533-3.413-8.533-8.533V7.568c0-3.413,1.707-6.827,5.12-7.68
		c3.413-1.707,6.827-0.853,9.387,1.707l93.867,93.867c2.56,2.56,3.413,5.973,1.707,9.387
		C423.96,108.261,420.547,109.968,417.133,109.968z M331.8,92.901h64.853L331.8,28.048V92.901z"/>
	<path d="M263.533,434.235c-42.667,0-76.8-34.133-76.8-76.8s34.133-76.8,76.8-76.8s76.8,34.133,76.8,76.8
		S306.2,434.235,263.533,434.235z M263.533,297.701c-33.28,0-59.733,26.453-59.733,59.733s26.453,59.733,59.733,59.733
		s59.733-26.453,59.733-59.733S296.813,297.701,263.533,297.701z"/>
	<path d="M263.533,511.035c-5.12,0-8.533-3.413-8.533-8.533v-76.8c0-5.12,3.413-8.533,8.533-8.533c5.12,0,8.533,3.413,8.533,8.533
		v76.8C272.067,507.621,268.653,511.035,263.533,511.035z"/>
	<path d="M417.133,400.101h-94.72c-3.413,0-5.973-1.707-7.68-4.267s-1.707-5.973,0-8.533c5.12-9.387,7.68-19.627,7.68-29.867
		c0-33.28-26.453-59.733-59.733-59.733s-59.733,26.453-59.733,59.733c0,10.24,2.56,19.627,7.68,29.013
		c0.853,1.707,1.707,3.413,1.707,5.12c0,5.12-3.413,8.533-8.533,8.533l0,0H92.867c-5.12,0-8.533-3.413-8.533-8.533v-384
		c0-5.12,3.413-8.533,8.533-8.533h230.4c2.56,0,4.267,0.853,5.973,2.56l93.867,93.867c1.707,1.707,2.56,3.413,2.56,5.973v290.133
		C425.667,396.688,422.253,400.101,417.133,400.101z M336.067,383.035H408.6V104.848l-88.747-88.747H101.4v366.933H191
		c-2.56-8.533-4.267-17.067-4.267-25.6c0-42.667,34.133-76.8,76.8-76.8s76.8,34.133,76.8,76.8
		C340.333,365.968,338.627,374.501,336.067,383.035z"/>
	<path d="M237.933,118.501h-93.867c-5.12,0-8.533-3.413-8.533-8.533V75.835c0-5.12,3.413-8.533,8.533-8.533h93.867
		c5.12,0,8.533,3.413,8.533,8.533v34.133C246.467,115.088,243.053,118.501,237.933,118.501z M152.6,101.435h76.8V84.368h-76.8
		V101.435z"/>
	<path d="M297.667,186.768h-153.6c-5.12,0-8.533-3.413-8.533-8.533v-34.133c0-5.12,3.413-8.533,8.533-8.533h153.6
		c5.12,0,8.533,3.413,8.533,8.533v34.133C306.2,183.355,302.787,186.768,297.667,186.768z M152.6,169.701h136.533v-17.067H152.6
		V169.701z"/>
	<path d="M348.867,255.035h-204.8c-5.12,0-8.533-3.413-8.533-8.533v-34.133c0-5.12,3.413-8.533,8.533-8.533h204.8
		c5.12,0,8.533,3.413,8.533,8.533v34.133C357.4,251.621,353.987,255.035,348.867,255.035z M152.6,237.968h187.733v-17.067H152.6
		V237.968z"/>
</g>
</svg>